<?xml version="1.0" encoding="UTF-8"?>
<svg id="Ebene_1" xmlns="http://www.w3.org/2000/svg" viewBox="0 0 90.04 119.24">
  <defs>
    <style>
      .cls-1, .cls-2 {
        fill: none;
      }

      .cls-2 {
        stroke: #2a4798;
        stroke-miterlimit: 10;
        stroke-width: 5px;
      }
    </style>
  </defs>
  <circle class="cls-2" cx="45.02" cy="74.22" r="42.52"/>
  <g>
    <g>
      <path class="cls-2" d="M57.21,24.87c-4.51-.27-7.55-1.46-12.6-1.4-3.39.04-8.41,1.21-11.55,1.4-4.64-3.28-6.5-8.5-5.18-12.76.56-1.81,1.92-3.57,4.48-5.09,0,0,3.5-1.75,8.05,2.45l4.55-5.6,4.9,5.6s6.3-5.25,10.5,0c0,0,6.65,5.95-3.15,15.4Z"/>
      <path class="cls-2" d="M57.21,24.87c-4.51-.27-7.55-1.46-12.6-1.4-3.39.04-8.41,1.21-11.55,1.4-4.64-3.28-6.5-8.5-5.18-12.76.56-1.81,1.92-3.57,4.48-5.09,0,0,3.5-1.75,8.05,2.45l4.55-5.6,4.9,5.6s6.3-5.25,10.5,0c0,0,6.65,5.95-3.15,15.4Z"/>
    </g>
    <path class="cls-1" d="M38.67,9.83s-7.7,7.35,1.75,15.05"/>
    <path class="cls-1" d="M49.88,9.39s7.7,7.35-1.75,15.05"/>
    <path class="cls-2" d="M41.32,8.78s-6.56,5.42-.94,14"/>
    <path class="cls-2" d="M48.69,8.47s6.87,5.42.98,14"/>
  </g>
  <path class="cls-2" d="M57.97,102.01c3.11-2.53,7.96-9.14,6.4-25.35-.03-.32.03-.65.19-.93,1.63-2.92,10.6-20.21-1.64-26.53,0,0-6.72-4.14-13.15,1.1-.09.07-.17.15-.24.24-.52.63-3.32,3.52-8.66.06,0,0-9.1-5.95-15.05-.7,0,0-11.94,8.87.89,25.93.31.41.41.95.26,1.44-1.01,3.34-4.32,16.72,4.41,24.25.92.79,2.36.28,2.6-.91.72-3.48,2.34-9.97,5.14-15.02,0,0,5.6-10.15,11.2,0,0,0,4.07,6.97,5.05,15.35.15,1.24,1.62,1.85,2.59,1.06Z"/>
</svg>